<?xml version="1.0" encoding="utf-8"?>
<!-- Generator: Adobe Illustrator 16.0.0, SVG Export Plug-In . SVG Version: 6.00 Build 0)  -->
<!DOCTYPE svg PUBLIC "-//W3C//DTD SVG 1.1//EN" "http://www.w3.org/Graphics/SVG/1.1/DTD/svg11.dtd">
<svg version="1.1" id="Layer_1" xmlns="http://www.w3.org/2000/svg" xmlns:xlink="http://www.w3.org/1999/xlink" x="0px" y="0px"
	 width="236.5px" height="74.75px" viewBox="32.125 9.5 236.5 74.75" enable-background="new 32.125 9.5 236.5 74.75"
	 xml:space="preserve">
<g id="Layer_1_1_" display="none">
	
		<image display="inline" overflow="visible" enable-background="new    " width="640" height="436" xlink:href="BDCD8CA0F60610C8.jpeg"  transform="matrix(0.24 0 0 0.24 -17.3501 -19.5703)">
	</image>
</g>
<g id="Layer_4" display="none">
	<path display="inline" fill="#0069B9" d="M46.59,80.891c-1.36-0.23-2.74-0.36-4.06-0.711c-1.65-0.439-3.24-1.06-4.86-1.59
		c-0.29-0.1-0.59-0.26-0.87-0.22c-1.61,0.18-3.11-0.2-4.62-0.681c-0.37-0.119-0.85-0.119-1.2,0.021c-2.89,1.13-5.83,2.06-8.93,2.39
		c-0.8,0.09-1.6,0.211-2.36-0.25c-0.9-0.55-1.18-1.289-0.58-2.149c0.54-0.771,1.17-1.54,1.92-2.091c1.75-1.26,3.18-2.779,4.28-4.629
		c0.49-0.83,1.17-1.46,2.15-1.76c1.27-0.38,2.51-0.87,3.84-1.34c-0.09-1.8,0.13-3.69-0.48-5.6c-1.24-3.87-1.3-7.87-0.17-11.76
		c0.79-2.7,1.02-5.39,0.96-8.16c-0.03-1.35,0-2.7,0-4.15c-1.29,0.26-2.54,0.44-3.74,0.77c-3.23,0.88-6.54,0.92-9.85,0.97
		c-1.64,0.03-3.29,0.15-4.93,0.05c-0.97-0.06-1.93-0.46-2.87-0.76c-0.12-0.04-0.21-0.34-0.23-0.53c-0.2-1.46-0.39-2.92-0.57-4.32
		c-0.71-0.14-1.39-0.21-2.04-0.41c-0.89-0.28-1.21-0.82-1.27-1.74c-0.13-1.97-0.27-3.94-0.48-5.91c-0.08-0.72,0.18-0.94,0.83-1.07
		c1.82-0.37,3.62-0.81,5.53-1.24c-0.08-1.94-0.17-3.87-0.25-5.84c-1.15,0-2.24-0.04-3.32,0.01c-1.26,0.06-2.07-0.87-3.09-1.32
		c-0.06-0.03-0.11-0.17-0.1-0.24c0.22-1.74-0.65-3.18-1.24-4.7c-0.08-0.19-0.19-0.37-0.29-0.56c0-0.05,0-0.09,0-0.14
		c9.1-0.93,18.22-1.85,27.5-2.79C30.04,6.71,30.77,5,31.07,3.3c0.33-1.8,0.86-3.59,0.99-5.4c0.1-1.43,0.92-1.8,1.99-2.1
		c0.5-0.14,1.01-0.21,1.52-0.31c0.76,0,1.52,0,2.29,0c0.36,0.1,0.73,0.19,1.08,0.3c0.94,0.27,1.09,0.51,1.14,1.49
		c0.13,2.52,0.28,5.04,0.43,7.56c0.05,0.87,0.1,1.75,0.15,2.67c1.73-0.17,3.38-0.35,5.04-0.49c3.11-0.26,6.22-0.58,9.33-0.72
		c1.25-0.05,2.52,0.33,3.78,0.51c0.61,0.09,1.22,0.23,1.83,0.25c2.81,0.07,5.62,0.09,8.43,0.15c0.23,0,0.6,0.17,0.65,0.33
		c0.74,2.53,1.44,5.07,2.17,7.66c-0.46,0.11-0.87,0.2-1.45,0.34c0.59,0.31,1.08,0.52,1.51,0.81c0.17,0.11,0.34,0.4,0.32,0.59
		c-0.21,2.28-0.46,4.55-0.69,6.82c-0.04,0.4-0.2,0.57-0.6,0.65c-0.67,0.13-1.32,0.34-2.01,0.52c0.06,0.09,0.08,0.15,0.11,0.16
		c1.69,0.44,2.19,1.98,2.99,3.25c0.1,0.16,0.11,0.42,0.07,0.6c-0.28,1.23-0.6,2.45-0.93,3.78c-1.04-0.18-2.06-0.35-3.07-0.53
		c-1.12-0.2-2.24-0.42-3.37-0.61c-0.25-0.04-0.52-0.03-0.77,0.02c-7.6,1.54-15.21,3.09-22.81,4.63c-0.41,0.08-0.54,0.23-0.66,0.65
		c-1.17,3.82-0.5,7.72-0.47,11.58c0.05,5.72,0.25,11.44,0.39,17.15c0.01,0.3,0,0.61,0,0.88c1.55,0.22,3.02,0.39,4.46,0.66
		c0.71,0.13,1.41,0.43,2.08,0.72c1.29,0.57,2.05,1.53,1.94,3.02c1.38,0.42,2.75,0.8,4.09,1.27c2.21,0.78,4.02,2.13,5.41,4.04
		c0.61,0.84-0.09,2.7-1.07,2.63c-2.45-0.18-4.61,0.811-6.87,1.45c-0.73,0.21-1.46,0.39-2.2,0.579
		C47.74,80.891,47.17,80.891,46.59,80.891z M60.83,26.63c-0.13,0.06-0.25,0.14-0.38,0.16c-2.83,0.39-5.66,0.78-8.48,1.17
		c-2.15,0.3-4.31,0.6-6.66,0.93c0.37,0.15,0.56,0.22,0.74,0.3c-0.45,0.14-1.18,0.34-1.28,0.17c-0.39-0.66-0.87-0.22-1.26-0.2
		c-0.78,0.03-1.56,0.21-2.33,0.31c-5.66,0.79-11.32,1.57-16.98,2.36c-1.46,0.2-2.97,0.25-4.38,0.65c-2.28,0.64-4.5,1.52-6.75,2.29
		c-0.17,0.06-0.34,0.14-0.55,0.23c0.36,1.17,0.74,2.3,1.04,3.44c0.15,0.58,0.41,0.78,1.03,0.77c2.72-0.04,5.43-0.01,8.15-0.02
		c0.4,0,0.81-0.03,1.21-0.11c12.14-2.4,24.29-4.79,36.42-7.24c2.22-0.45,4.38-0.77,6.63-0.2c1.21,0.3,2.48,0.39,3.73,0.58
		c0.26-0.729,0.43-1.43,0.74-2.07c0.43-0.9,0.36-1.59-0.53-2.16c-0.34-0.21-0.56-0.6-0.9-0.81c-0.36-0.22-0.78-0.46-1.19-0.47
		c-2.68-0.06-5.35-0.06-8.03-0.08c0.32-0.06,0.65-0.1,0.96-0.19c2.72-0.86,5.44-1.71,8.16-2.6c0.18-0.06,0.36-0.35,0.41-0.56
		c0.4-1.67,0.78-3.34,1.16-5.01c0.1-0.46,0.2-0.91,0.31-1.41c-0.27-0.02-0.46-0.04-0.65-0.05c-2.15-0.06-4.29-0.11-6.43-0.17
		c-0.45-0.01-0.91-0.16-1.34-0.09c-5.77,0.96-11.54,1.96-17.31,2.93c-0.81,0.14-1.62,0.22-2.43,0.32c3.48-0.72,6.98-1.27,10.47-1.88
		c3.65-0.64,7.29-1.29,10.92-2.02c1.77-0.35,3.5-0.88,5.3-1.34c-0.34-2.27-0.67-4.5-1.02-6.82c-3.57,0.19-7.11,0.37-10.44,0.54
		c-0.35-0.19-0.6-0.36-0.87-0.46c-0.27-0.09-0.57-0.05-0.84-0.15c-0.79-0.29-1.58-0.27-2.39-0.15c-1.34,0.19-2.69,0.35-4.04,0.52
		c-6.83,0.83-13.66,1.71-20.5,2.47c-6.16,0.68-12.33,1.23-18.49,1.84c-1.57,0.15-3.15,0.29-4.55,0.42c0.49,1.62,0.96,3.2,1.45,4.81
		c3.12,0,6.35,0,9.78,0c-1.35,0.28-2.53,0.52-3.75,0.77c0.1,1.77,0.2,3.5,0.31,5.32c3.62-0.31,7.15-0.61,10.7-0.91
		c-0.05,0.05-0.08,0.12-0.13,0.13c-1.38,0.34-2.76,0.71-4.15,0.99c-3.48,0.71-6.96,1.37-10.44,2.05c-1.28,0.25-1.27,0.24-1.26,1.54
		c0.01,2,0,3.99,0,6.01c0.35,0,0.49,0.02,0.62,0c3.54-0.49,7.07-0.99,10.61-1.48c5.4-0.74,10.81-1.48,16.21-2.22
		c4.74-0.65,9.48-1.31,14.23-1.95C54.51,27.45,57.67,27.04,60.83,26.63z M36.38,77.58c-0.11-0.311-0.19-0.561-0.28-0.811
		c-0.88-2.459-0.01-4.54,2.4-5.55c0.55-0.229,0.66-0.54,0.65-1.07c-0.06-9.37-0.12-18.73-0.15-28.1c0-1.19,0.09-2.38,0.15-3.56
		c0.03-0.59,0.07-1.17,0.11-1.84c-2.04,0.41-3.99,0.79-5.94,1.21c-0.14,0.03-0.29,0.33-0.31,0.52c-0.11,1.52-0.17,3.05-0.29,4.57
		c-0.14,1.73-0.06,3.52-0.53,5.17c-1.49,5.27-1.56,10.46,0.3,15.65c0.12,0.33,0.19,0.7,0.18,1.04c-0.04,3.5-0.06,7.01-0.17,10.51
		c-0.03,0.85,0.26,1.32,0.93,1.71C34.33,77.54,35.23,78,36.38,77.58z M53.43,77.4c-1.61-0.021-1.61-0.021-2.97-0.91
		c-0.4-0.26-0.79-0.53-1.2-0.771c-0.13-0.079-0.35-0.17-0.44-0.11c-0.81,0.461-1.68,0.86-2.34,1.49
		c-0.31,0.291-0.21,1.021-0.3,1.551c-0.01,0.05-0.04,0.1-0.14,0.319c-0.1-0.61-0.16-1.05-0.26-1.479c-0.1-0.43,0.01-0.7,0.43-0.91
		c0.86-0.45,1.69-0.96,2.55-1.45c-0.35-1.11-0.67-2.19-1.05-3.23c-0.07-0.2-0.4-0.41-0.62-0.43c-1.21-0.09-2.42-0.22-3.62-0.14
		c-1.74,0.12-3.45,0.47-4.96,1.43c-1.6,1.02-2.08,2.561-1.4,4.34c0.19,0.5,0.47,0.83,1,0.99c0.86,0.26,1.7,0.63,2.56,0.88
		c3.66,1.04,7.33,1.73,10.98-0.079c0.06-0.031,0.13-0.061,0.2-0.07c1.61-0.311,3.22-0.601,4.82-0.93c0.34-0.07,0.77-0.19,0.93-0.431
		c0.26-0.399,0.34-0.899-0.04-1.38c-2.06-2.63-5.05-3.36-8.06-4.16c0,0.98-0.04,1.87,0.02,2.74c0.02,0.279,0.22,0.64,0.45,0.779
		C51.14,76.141,52.34,76.79,53.43,77.4z M39.57,7.71c0-0.21,0.01-0.37,0-0.53c-0.26-2.77-0.53-5.55-0.77-8.32
		c-0.03-0.35,0.01-0.76,0.16-1.08c0.33-0.71,0.25-1.21-0.5-1.39c-0.89-0.22-1.84-0.35-2.74-0.28c-0.83,0.06-1.66,0.37-2.44,0.7
		c-0.52,0.22-0.64,0.75-0.19,1.17c0.43,0.4,0.39,0.79,0.29,1.28c-0.53,2.51-1.03,5.03-1.54,7.55c-0.13,0.67,0.63,1.51,1.31,1.45
		c0.88-0.07,1.76-0.13,2.64-0.21C37.02,7.94,38.27,7.83,39.57,7.71z M26.51,78.391c1.53-0.621,2.92-1.16,4.29-1.761
		c0.17-0.069,0.32-0.39,0.33-0.6c0.07-1.79,0.1-3.57,0.14-5.36c0.01-0.63,0-1.27,0-1.98c-1.04,0.34-2,0.72-2.99,0.95
		c-1.44,0.33-2.35,1.13-2.89,2.5c-0.47,1.2-1.4,2.03-2.47,2.78c-1.09,0.77-2.04,1.77-2.96,2.76c-0.25,0.271-0.34,0.91-0.21,1.29
		c0.18,0.521,0.75,0.7,1.32,0.601c1.08-0.19,2.15-0.41,3.23-0.58c0.56-0.09,0.76-0.34,0.83-0.92c0.17-1.561,2.05-3.851,3.44-4.25
		C27.25,75.02,26.85,76.57,26.51,78.391z M5.86,12.18c5.61-0.52,11.1-1,16.59-1.54c5.48-0.54,10.95-1.11,16.42-1.73
		c5.45-0.61,10.9-1.31,16.34-1.97c-0.01-0.11-0.02-0.22-0.04-0.33c-16.84,1.44-33.64,3.34-50.6,4.93c0.25,0.55,0.43,1.01,0.66,1.45
		c0.55,1.05,0.97,2.12,0.76,3.35c-0.03,0.14,0.08,0.39,0.2,0.46c0.41,0.26,0.85,0.46,1.37,0.74C7.44,15.56,6.86,13.87,5.86,12.18z
		 M19.46,23.91c0-0.03-0.01-0.07-0.01-0.1c-1.25,0.11-2.51,0.25-3.76,0.32c-0.83,0.05-1.68-0.11-2.48,0.03
		c-2.02,0.35-4.01,0.82-6.02,1.22C6.8,25.46,6.69,25.62,6.7,26c0.05,2.12,0.06,4.24,0.11,6.36c0,0.19,0.08,0.47,0.21,0.54
		c0.49,0.27,1.02,0.47,1.61,0.73c0.01-0.32,0.03-0.5,0.03-0.68c-0.06-2.14-0.1-4.29-0.2-6.43c-0.02-0.55,0.07-0.78,0.68-0.88
		C12.58,25.09,16.02,24.49,19.46,23.91z M48.12,70.83c0.05-0.08,0.11-0.16,0.16-0.25c-0.52-0.56-1.02-1.13-1.56-1.67
		c-0.51-0.5-1.06-0.71-1.74-0.21c-0.38,0.28-0.84,0.46-1.28,0.63c-0.2,0.08-0.45,0.04-0.68,0.06c-0.02-0.06-0.03-0.12-0.05-0.18
		c0.56-0.46,1.13-0.93,1.69-1.39c0-0.08,0-0.16,0-0.23c-1.35-0.25-2.7-0.5-4.11-0.75c0,1.37,0,2.51,0,3.71
		C43.14,70.09,45.64,70.18,48.12,70.83z M13.63,18.15c-0.42,0-0.79,0-1.22,0c0.1,1.71,0.22,3.36,0.27,5.02
		c0.02,0.66,0.23,0.92,0.95,0.73C13.63,22,13.63,20.09,13.63,18.15z M10.73,34.7c0,1.37-0.01,2.71,0.01,4.06
		c0,0.11,0.12,0.3,0.21,0.32c0.47,0.1,0.95,0.15,1.48,0.23c-0.24-1.25-0.49-2.36-0.65-3.49C11.7,35.14,11.33,34.84,10.73,34.7z
		 M16.85,33.09c-0.01-0.04-0.02-0.08-0.03-0.12c-2.19,0.39-4.38,0.78-6.57,1.17c0.47,0.21,0.99,0.47,1.42,0.37
		C13.41,34.09,15.13,33.57,16.85,33.09z M69.01,25.87c0.02-0.06,0.03-0.12,0.05-0.18c-0.34-0.18-0.72-0.55-1.02-0.5
		c-1.09,0.19-2.16,0.52-3.23,0.8c0.01,0.04,0.02,0.09,0.03,0.13C66.23,26.03,67.62,25.95,69.01,25.87z M70.73,16.4
		c0.02-0.03,0.05-0.05,0.07-0.08c-0.47-0.2-0.94-0.58-1.4-0.55c-1,0.05-2,0.3-3,0.47c0,0.06,0.01,0.11,0.01,0.17
		C67.86,16.4,69.29,16.4,70.73,16.4z M57.05,6.99c2.21,0.65,4.68,0.8,6.6,0.44C61.6,7.29,59.36,7.14,57.05,6.99z"/>
	<path display="inline" fill="none" d="M60.83,26.63c-3.16,0.41-6.33,0.82-9.48,1.25c-4.74,0.64-9.48,1.3-14.23,1.95
		c-5.4,0.74-10.81,1.47-16.21,2.22c-3.54,0.49-7.07,0.99-10.61,1.48c-0.13,0.02-0.28,0-0.62,0c0-2.021,0.01-4.021,0-6.01
		c-0.01-1.3-0.02-1.29,1.26-1.54c3.48-0.68,6.97-1.34,10.44-2.05c1.39-0.28,2.77-0.65,4.15-0.99c0.05-0.01,0.09-0.09,0.13-0.13
		c-3.55,0.3-7.08,0.6-10.7,0.91c-0.1-1.82-0.2-3.55-0.31-5.32c1.23-0.25,2.4-0.49,3.75-0.77c-3.43,0-6.66,0-9.78,0
		c-0.49-1.62-0.96-3.19-1.45-4.81c1.4-0.13,2.98-0.27,4.55-0.42c6.17-0.6,12.34-1.15,18.49-1.84c6.84-0.76,13.67-1.64,20.5-2.47
		c1.35-0.17,2.7-0.33,4.04-0.52c0.81-0.12,1.6-0.14,2.39,0.15c0.26,0.1,0.57,0.061,0.84,0.15c0.27,0.1,0.52,0.27,0.87,0.46
		c3.34-0.17,6.87-0.36,10.44-0.54c0.35,2.31,0.68,4.54,1.02,6.82c-1.8,0.46-3.53,0.99-5.3,1.34c-3.63,0.72-7.27,1.38-10.92,2.02
		c-3.49,0.61-7,1.15-10.47,1.88c0.81-0.11,1.62-0.19,2.43-0.32c5.77-0.98,11.54-1.97,17.31-2.93c0.43-0.07,0.89,0.07,1.34,0.09
		c2.15,0.06,4.29,0.11,6.43,0.17c0.19,0,0.38,0.03,0.65,0.05c-0.11,0.5-0.2,0.95-0.31,1.41c-0.38,1.67-0.75,3.35-1.16,5.01
		c-0.05,0.21-0.23,0.5-0.41,0.56c-2.71,0.89-5.43,1.75-8.16,2.6c-0.31,0.1-0.64,0.13-0.96,0.19L60.83,26.63z M29.15,22.14
		c0.77-0.12,1.55-0.25,2.36-0.38C30.62,21.39,29.85,21.53,29.15,22.14z M41.4,20.19c-0.01-0.05-0.01-0.1-0.02-0.14
		c-1.06,0.15-2.12,0.3-3.18,0.45c0.01,0.07,0.02,0.13,0.03,0.2C39.28,20.53,40.34,20.36,41.4,20.19z"/>
	<path display="inline" fill="none" d="M60.81,26.64c2.68,0.02,5.36,0.02,8.03,0.08c0.4,0.01,0.83,0.25,1.19,0.47
		c0.34,0.21,0.57,0.59,0.9,0.81c0.89,0.56,0.96,1.26,0.53,2.16c-0.31,0.64-0.48,1.34-0.74,2.07c-1.25-0.19-2.52-0.28-3.73-0.58
		c-2.24-0.56-4.41-0.24-6.63,0.2c-12.13,2.45-24.28,4.84-36.42,7.24c-0.39,0.08-0.8,0.1-1.21,0.11c-2.72,0.01-5.44-0.02-8.15,0.02
		c-0.62,0.01-0.87-0.189-1.03-0.77c-0.3-1.14-0.68-2.27-1.04-3.44c0.21-0.09,0.38-0.17,0.55-0.229c2.25-0.78,4.46-1.65,6.75-2.29
		c1.41-0.4,2.91-0.45,4.38-0.65c5.66-0.78,11.32-1.57,16.98-2.36c0.78-0.11,1.55-0.28,2.33-0.31c0.39-0.02,0.87-0.45,1.26,0.2
		c0.1,0.17,0.84-0.04,1.28-0.17c-0.18-0.07-0.37-0.15-0.74-0.3c2.35-0.33,4.51-0.63,6.66-0.93c2.83-0.39,5.66-0.77,8.48-1.17
		c0.13-0.02,0.26-0.11,0.39-0.16C60.83,26.63,60.81,26.64,60.81,26.64z"/>
	<path display="inline" fill="none" d="M36.38,77.58c-1.15,0.42-2.05-0.04-2.95-0.561c-0.68-0.39-0.96-0.869-0.93-1.709
		c0.11-3.5,0.13-7,0.17-10.511c0-0.35-0.07-0.71-0.18-1.04c-1.86-5.18-1.78-10.37-0.3-15.65c0.46-1.64,0.39-3.44,0.53-5.17
		c0.12-1.52,0.18-3.05,0.29-4.57c0.01-0.19,0.17-0.49,0.31-0.52c1.95-0.42,3.91-0.8,5.94-1.21c-0.04,0.67-0.08,1.25-0.11,1.84
		C39.09,39.67,39,40.86,39,42.04c0.04,9.37,0.09,18.73,0.15,28.1c0.01,0.53-0.1,0.84-0.65,1.07c-2.4,1.02-3.27,3.09-2.4,5.55
		C36.19,77.02,36.27,77.27,36.38,77.58z"/>
	<path display="inline" fill="none" d="M53.43,77.4c-1.09-0.62-2.29-1.26-3.45-1.971c-0.23-0.14-0.43-0.51-0.45-0.779
		c-0.06-0.87-0.02-1.76-0.02-2.74c3.01,0.8,6.01,1.53,8.06,4.16c0.38,0.479,0.3,0.979,0.04,1.38c-0.16,0.25-0.6,0.36-0.93,0.43
		c-1.6,0.33-3.21,0.62-4.82,0.931c-0.07,0.01-0.14,0.039-0.2,0.069c-3.65,1.81-7.31,1.13-10.98,0.08c-0.87-0.25-1.7-0.62-2.56-0.88
		c-0.54-0.16-0.81-0.49-1-0.99c-0.68-1.779-0.2-3.31,1.4-4.34c1.51-0.96,3.22-1.31,4.96-1.43c1.2-0.08,2.42,0.05,3.62,0.14
		c0.22,0.02,0.55,0.23,0.62,0.43c0.38,1.04,0.69,2.12,1.05,3.23c-0.86,0.489-1.69,1-2.55,1.45c-0.42,0.22-0.53,0.479-0.43,0.91
		c0.1,0.43,0.15,0.869,0.26,1.479c0.1-0.22,0.13-0.271,0.14-0.319c0.09-0.531-0.01-1.261,0.3-1.551c0.66-0.619,1.54-1.029,2.34-1.49
		c0.1-0.06,0.31,0.03,0.44,0.11c0.41,0.24,0.8,0.511,1.2,0.771C51.81,77.38,51.81,77.38,53.43,77.4z"/>
	<path display="inline" fill="none" d="M39.57,7.71c-1.29,0.12-2.55,0.24-3.8,0.34c-0.88,0.08-1.76,0.14-2.64,0.21
		c-0.68,0.05-1.44-0.78-1.31-1.45c0.5-2.52,1.01-5.04,1.54-7.55c0.1-0.49,0.14-0.89-0.29-1.28c-0.45-0.42-0.33-0.95,0.19-1.17
		c0.78-0.32,1.61-0.63,2.44-0.7c0.9-0.07,1.85,0.06,2.74,0.28c0.75,0.18,0.83,0.68,0.5,1.39c-0.15,0.32-0.19,0.72-0.16,1.08
		c0.24,2.78,0.52,5.55,0.77,8.32C39.58,7.33,39.57,7.5,39.57,7.71z M38.31-1.51c-1.36,0.26-2.7,1.02-4.02,0
		c-0.17,0.49,0.26,1.02,0.97,1.28C36.13,0.1,37.94-0.64,38.31-1.51z"/>
	<path display="inline" fill="none" d="M26.51,78.391c0.34-1.82,0.74-3.371,2.06-4.571c-1.39,0.4-3.27,2.69-3.44,4.25
		c-0.06,0.58-0.27,0.83-0.83,0.92c-1.08,0.17-2.15,0.4-3.23,0.58c-0.57,0.1-1.14-0.08-1.32-0.601c-0.13-0.37-0.04-1.01,0.21-1.29
		c0.92-0.99,1.86-1.99,2.96-2.76c1.07-0.75,2-1.58,2.47-2.78c0.54-1.37,1.46-2.17,2.89-2.5c0.99-0.23,1.94-0.61,2.99-0.95
		c0,0.71,0.01,1.34,0,1.98c-0.04,1.79-0.07,3.57-0.14,5.36c-0.01,0.21-0.16,0.53-0.33,0.6C29.43,77.23,28.04,77.77,26.51,78.391z"/>
	<path display="inline" fill="none" d="M5.86,12.18c1.01,1.69,1.58,3.38,1.7,5.35c-0.51-0.271-0.96-0.48-1.37-0.74
		c-0.12-0.08-0.23-0.32-0.2-0.46c0.21-1.23-0.21-2.3-0.76-3.35C5,12.54,4.82,12.09,4.57,11.53c16.96-1.59,33.76-3.49,50.6-4.93
		c0.01,0.11,0.02,0.22,0.04,0.33C49.77,7.6,44.32,8.3,38.87,8.91c-5.47,0.62-10.94,1.18-16.42,1.73
		C16.96,11.18,11.46,11.66,5.86,12.18z"/>
	<path display="inline" fill="none" d="M19.46,23.91c-3.44,0.58-6.88,1.19-10.32,1.73c-0.61,0.1-0.71,0.33-0.68,0.88
		c0.09,2.14,0.14,4.29,0.2,6.43c0.01,0.18-0.01,0.36-0.03,0.68c-0.59-0.26-1.12-0.46-1.61-0.73c-0.13-0.07-0.21-0.35-0.21-0.54
		C6.76,30.24,6.74,28.12,6.7,26c-0.01-0.38,0.1-0.54,0.49-0.62c2.01-0.4,4-0.87,6.02-1.22c0.81-0.14,1.66,0.02,2.48-0.03
		c1.26-0.07,2.51-0.21,3.76-0.32C19.45,23.84,19.46,23.88,19.46,23.91z"/>
	<path display="inline" fill="none" d="M48.12,70.83c-2.48-0.65-4.98-0.74-7.56-0.28c0-1.2,0-2.35,0-3.71
		c1.41,0.26,2.76,0.51,4.11,0.75c0,0.08,0,0.15,0,0.23c-0.56,0.46-1.13,0.93-1.69,1.39c0.02,0.06,0.03,0.12,0.05,0.18
		c0.23-0.02,0.48,0.02,0.68-0.06c0.44-0.18,0.9-0.35,1.28-0.63c0.68-0.5,1.23-0.29,1.74,0.21c0.54,0.54,1.04,1.12,1.56,1.67
		C48.22,70.66,48.17,70.75,48.12,70.83z"/>
	<path display="inline" fill="none" d="M13.63,18.15c0,1.94,0,3.85,0,5.75c-0.71,0.2-0.93-0.06-0.95-0.73
		c-0.05-1.66-0.17-3.31-0.27-5.02C12.83,18.15,13.2,18.15,13.63,18.15z"/>
	<path display="inline" fill="none" d="M10.73,34.7c0.6,0.14,0.96,0.44,1.06,1.12c0.16,1.12,0.41,2.24,0.65,3.49
		c-0.54-0.08-1.02-0.13-1.48-0.23c-0.09-0.02-0.21-0.21-0.21-0.32C10.73,37.41,10.73,36.07,10.73,34.7z"/>
	<path display="inline" fill="none" d="M16.85,33.09c-1.72,0.48-3.44,1-5.18,1.42c-0.43,0.1-0.95-0.15-1.42-0.37
		c2.19-0.39,4.38-0.78,6.57-1.17C16.83,33,16.84,33.04,16.85,33.09z"/>
	<path display="inline" fill="none" d="M69.01,25.87c-1.39,0.08-2.78,0.16-4.18,0.25c-0.01-0.04-0.02-0.09-0.03-0.13
		c1.08-0.28,2.14-0.61,3.23-0.8c0.3-0.05,0.68,0.32,1.02,0.5C69.05,25.74,69.03,25.81,69.01,25.87z"/>
	<path display="inline" fill="none" d="M70.73,16.4c-1.44,0-2.87,0-4.31,0c0-0.05-0.01-0.11-0.01-0.17c1-0.17,1.99-0.42,3-0.47
		c0.46-0.02,0.93,0.36,1.4,0.55C70.78,16.35,70.75,16.37,70.73,16.4z"/>
	<path display="inline" fill="none" d="M57.05,6.99c2.31,0.16,4.55,0.31,6.6,0.44C61.73,7.79,59.26,7.64,57.05,6.99z"/>
	<path display="inline" d="M29.15,22.14c0.71-0.61,1.48-0.75,2.36-0.38C30.69,21.89,29.92,22.01,29.15,22.14z"/>
	<path display="inline" d="M41.4,20.19c-1.06,0.17-2.12,0.33-3.17,0.5c-0.01-0.07-0.02-0.13-0.03-0.2c1.06-0.15,2.12-0.3,3.18-0.45
		C41.38,20.1,41.39,20.15,41.4,20.19z"/>
	<path display="inline" fill="#0069B9" d="M38.31-1.51c-0.37,0.86-2.19,1.6-3.05,1.28c-0.71-0.26-1.14-0.79-0.97-1.28
		C35.61-0.49,36.95-1.25,38.31-1.51z"/>
	<g display="inline">
		<path d="M24.89,17.22c0.25,0.09,0.61,0.16,0.98,0.12c0.39-0.05,0.58-0.24,0.55-0.48c-0.03-0.24-0.23-0.35-0.7-0.46
			c-0.66-0.14-1.11-0.44-1.18-0.99c-0.08-0.65,0.4-1.21,1.29-1.32c0.43-0.05,0.75,0,0.99,0.07l-0.11,0.72
			c-0.16-0.05-0.44-0.13-0.81-0.08c-0.37,0.05-0.53,0.24-0.51,0.43c0.03,0.24,0.26,0.32,0.77,0.45c0.7,0.16,1.06,0.47,1.12,1.01
			c0.08,0.63-0.34,1.24-1.38,1.36c-0.43,0.05-0.87-0.01-1.1-0.1L24.89,17.22z"/>
		<path d="M30.56,15.99c0.12,1-0.53,1.55-1.27,1.65c-0.8,0.1-1.49-0.35-1.6-1.24s0.4-1.53,1.29-1.64
			C29.82,14.66,30.46,15.17,30.56,15.99z M28.57,16.26c0.06,0.47,0.3,0.8,0.66,0.76c0.33-0.04,0.5-0.4,0.44-0.89
			c-0.05-0.41-0.26-0.81-0.65-0.76C28.62,15.42,28.52,15.86,28.57,16.26z"/>
		<path d="M31.03,15.46c-0.04-0.34-0.09-0.63-0.13-0.87l0.72-0.09l0.08,0.37h0.02c0.1-0.19,0.31-0.48,0.78-0.54
			c0.35-0.04,0.66,0.1,0.81,0.37h0.01c0.08-0.15,0.19-0.28,0.31-0.38c0.14-0.11,0.3-0.17,0.51-0.2c0.53-0.07,0.97,0.26,1.07,1.08
			l0.2,1.62l-0.83,0.1l-0.18-1.5c-0.05-0.4-0.21-0.61-0.48-0.58c-0.2,0.02-0.32,0.18-0.36,0.35c-0.01,0.06-0.01,0.16-0.01,0.22
			l0.2,1.61l-0.83,0.1l-0.19-1.54c-0.04-0.35-0.2-0.57-0.46-0.54c-0.22,0.03-0.33,0.21-0.36,0.36c-0.02,0.07-0.02,0.15-0.01,0.22
			l0.2,1.6l-0.83,0.1L31.03,15.46z"/>
		<path d="M36.62,15.55c0.07,0.35,0.44,0.48,0.84,0.43c0.29-0.04,0.52-0.1,0.74-0.21l0.18,0.57c-0.27,0.15-0.6,0.25-0.97,0.29
			c-0.93,0.12-1.53-0.36-1.64-1.22c-0.09-0.7,0.25-1.52,1.21-1.64c0.89-0.11,1.31,0.54,1.39,1.22c0.02,0.15,0.02,0.28,0.01,0.34
			L36.62,15.55z M37.56,14.84c-0.03-0.21-0.16-0.54-0.55-0.5c-0.36,0.04-0.46,0.39-0.46,0.62L37.56,14.84z"/>
		<path d="M40.19,16.22c-0.01-0.18-0.04-0.51-0.08-0.82l-0.39-3.17l0.85-0.11l0.19,1.57h0.01c0.13-0.26,0.4-0.44,0.78-0.49
			c0.66-0.08,1.21,0.4,1.31,1.25c0.12,0.99-0.45,1.56-1.07,1.64c-0.32,0.04-0.64-0.04-0.88-0.34H40.9l0.01,0.39L40.19,16.22z
			 M40.92,14.95c0.01,0.06,0.02,0.11,0.04,0.15c0.08,0.22,0.3,0.37,0.55,0.34c0.37-0.04,0.56-0.35,0.49-0.85
			c-0.05-0.43-0.29-0.74-0.68-0.69c-0.23,0.03-0.42,0.23-0.45,0.48c0,0.05,0,0.1,0,0.16L40.92,14.95z"/>
		<path d="M44.11,14.62c0.07,0.35,0.44,0.48,0.84,0.43c0.29-0.04,0.52-0.1,0.74-0.21l0.18,0.57c-0.27,0.15-0.6,0.25-0.97,0.29
			c-0.93,0.12-1.53-0.36-1.64-1.22c-0.09-0.7,0.25-1.52,1.21-1.64c0.89-0.11,1.31,0.54,1.4,1.22c0.02,0.15,0.02,0.28,0.01,0.34
			L44.11,14.62z M45.04,13.91c-0.03-0.21-0.16-0.55-0.55-0.5c-0.36,0.04-0.47,0.39-0.46,0.62L45.04,13.91z"/>
		<path d="M48.12,15.24l-0.08-0.271h-0.02c-0.15,0.24-0.42,0.39-0.75,0.43c-0.56,0.07-0.94-0.29-0.99-0.73
			c-0.09-0.71,0.51-1.14,1.48-1.25v-0.04c-0.02-0.15-0.12-0.34-0.54-0.29c-0.28,0.03-0.57,0.17-0.73,0.3l-0.23-0.53
			c0.18-0.13,0.54-0.31,1.04-0.37c0.92-0.11,1.27,0.39,1.35,1.03l0.12,0.96c0.03,0.26,0.08,0.52,0.12,0.66L48.12,15.24z
			 M47.86,13.96c-0.45,0.05-0.79,0.2-0.74,0.53c0.03,0.22,0.19,0.31,0.38,0.29c0.21-0.03,0.37-0.19,0.4-0.37
			c0.01-0.05,0.01-0.1,0-0.15L47.86,13.96z"/>
		<path d="M49.3,13.23c-0.05-0.41-0.09-0.67-0.13-0.9l0.74-0.09l0.09,0.5h0.02c0.09-0.42,0.41-0.63,0.67-0.66
			c0.08-0.01,0.12-0.01,0.18-0.01l0.1,0.8c-0.06,0-0.14-0.01-0.23,0.01c-0.31,0.04-0.51,0.23-0.53,0.5c0,0.06,0,0.13,0.01,0.19
			l0.17,1.39l-0.85,0.11L49.3,13.23z"/>
		<path d="M51.57,14.06c0.17,0.08,0.51,0.15,0.76,0.12c0.26-0.03,0.35-0.13,0.34-0.28c-0.02-0.14-0.11-0.2-0.44-0.27
			c-0.59-0.12-0.85-0.4-0.88-0.73c-0.06-0.51,0.33-0.95,1.01-1.04c0.32-0.04,0.62,0,0.79,0.06l-0.08,0.61
			c-0.13-0.05-0.38-0.11-0.61-0.08c-0.21,0.03-0.32,0.12-0.3,0.26c0.02,0.13,0.13,0.18,0.48,0.26c0.54,0.11,0.8,0.35,0.85,0.75
			c0.06,0.51-0.29,0.94-1.08,1.04c-0.36,0.04-0.69,0.01-0.91-0.08L51.57,14.06z"/>
	</g>
	<g display="inline">
		<path d="M25.22,24.35l0.41,3.17c0.04,0.31,0.09,0.63,0.13,0.82L25,28.43l-0.09-0.4H24.9c-0.13,0.33-0.45,0.53-0.8,0.58
			c-0.65,0.08-1.25-0.41-1.35-1.26c-0.12-0.93,0.39-1.53,1.04-1.62c0.34-0.04,0.62,0.04,0.76,0.21h0.01l-0.19-1.49L25.22,24.35z
			 M24.68,26.86c-0.01-0.04-0.02-0.11-0.03-0.15c-0.08-0.22-0.29-0.39-0.55-0.36c-0.39,0.05-0.54,0.42-0.49,0.86
			c0.06,0.47,0.33,0.73,0.68,0.68c0.25-0.03,0.42-0.23,0.44-0.47c0.01-0.06,0.01-0.13,0-0.2L24.68,26.86z"/>
		<path d="M28.95,26.49c0.13,1-0.52,1.56-1.26,1.65c-0.8,0.1-1.49-0.35-1.6-1.23c-0.11-0.89,0.4-1.53,1.28-1.64
			C28.21,25.16,28.85,25.67,28.95,26.49z M26.97,26.78c0.06,0.47,0.3,0.8,0.67,0.75c0.33-0.04,0.5-0.4,0.44-0.9
			c-0.05-0.41-0.26-0.81-0.65-0.76C27.02,25.93,26.92,26.37,26.97,26.78z"/>
		<path d="M30.56,25.81c-0.04-0.34-0.09-0.63-0.13-0.87l0.74-0.1l0.09,0.37h0.02c0.09-0.19,0.34-0.49,0.79-0.55
			c0.56-0.07,1.03,0.24,1.13,1.05l0.21,1.63l-0.85,0.11l-0.2-1.52c-0.04-0.35-0.2-0.58-0.51-0.54c-0.24,0.03-0.35,0.21-0.39,0.38
			c-0.02,0.05-0.02,0.14-0.01,0.22l0.2,1.58l-0.85,0.11L30.56,25.81z"/>
		<path d="M36.63,25.51c0.13,1-0.53,1.56-1.26,1.65c-0.8,0.1-1.49-0.35-1.6-1.23c-0.11-0.89,0.4-1.53,1.28-1.64
			C35.89,24.18,36.52,24.68,36.63,25.51z M34.65,25.79c0.06,0.47,0.3,0.8,0.67,0.75c0.33-0.04,0.5-0.4,0.44-0.9
			c-0.05-0.41-0.26-0.81-0.65-0.76C34.69,24.95,34.59,25.39,34.65,25.79z"/>
		<path d="M37.84,23.19l0.1,0.79l0.61-0.08l0.08,0.63l-0.61,0.08l0.13,0.99c0.04,0.33,0.14,0.47,0.4,0.44
			c0.11-0.01,0.19-0.04,0.25-0.05l0.09,0.65c-0.11,0.06-0.31,0.11-0.55,0.14c-0.27,0.04-0.52-0.03-0.67-0.15
			c-0.18-0.14-0.29-0.4-0.34-0.78l-0.14-1.12l-0.37,0.05l-0.08-0.63l0.37-0.05l-0.08-0.6L37.84,23.19z"/>
		<path d="M40.03,22.45l0.85-0.11l0.51,3.99l-0.85,0.11L40.03,22.45z"/>
		<path d="M42.52,22.61c0.03,0.24-0.12,0.45-0.41,0.49c-0.27,0.03-0.47-0.13-0.5-0.37c-0.04-0.25,0.12-0.45,0.39-0.49
			C42.28,22.21,42.48,22.37,42.52,22.61z M42.09,26.24l-0.35-2.75l0.85-0.11l0.35,2.75L42.09,26.24z"/>
		<path d="M44.28,24.34h0.01c0.05-0.12,0.1-0.24,0.15-0.36l0.45-0.9l1.03-0.13l-0.84,1.24l1.33,1.49l-1.05,0.13l-0.81-1.04
			l-0.18,0.3l0.11,0.86l-0.85,0.11l-0.51-3.99l0.85-0.11L44.28,24.34z"/>
		<path d="M47.11,24.47c0.07,0.35,0.44,0.47,0.84,0.42c0.29-0.04,0.52-0.11,0.74-0.21l0.19,0.56c-0.27,0.15-0.6,0.25-0.97,0.3
			c-0.93,0.12-1.54-0.35-1.65-1.21c-0.09-0.7,0.24-1.52,1.2-1.64c0.89-0.11,1.31,0.53,1.4,1.21c0.02,0.15,0.02,0.28,0.02,0.34
			L47.11,24.47z M48.04,23.76c-0.03-0.21-0.16-0.55-0.55-0.5c-0.36,0.05-0.46,0.39-0.46,0.62L48.04,23.76z"/>
		<path d="M50.73,22.38l0.08,0.6l0.47-0.06l0.06,0.48l-0.47,0.06l0.1,0.76c0.03,0.25,0.11,0.36,0.31,0.34
			c0.08-0.01,0.15-0.03,0.19-0.04l0.07,0.49c-0.08,0.04-0.23,0.09-0.42,0.11c-0.21,0.03-0.4-0.02-0.51-0.12
			c-0.14-0.11-0.22-0.3-0.26-0.6l-0.11-0.86l-0.28,0.04L49.9,23.1l0.28-0.04l-0.06-0.46L50.73,22.38z"/>
		<path d="M53.85,23.64c0.1,0.77-0.4,1.19-0.97,1.26c-0.61,0.08-1.14-0.26-1.23-0.94c-0.09-0.68,0.3-1.17,0.98-1.26
			C53.28,22.62,53.76,23,53.85,23.64z M52.33,23.85c0.05,0.36,0.23,0.61,0.51,0.58c0.25-0.03,0.38-0.31,0.34-0.69
			c-0.04-0.31-0.2-0.62-0.5-0.58C52.36,23.21,52.29,23.54,52.33,23.85z"/>
		<path d="M55.24,24.55c-0.01-0.14-0.03-0.39-0.06-0.63l-0.31-2.42l0.65-0.08l0.15,1.2h0.01c0.1-0.2,0.31-0.34,0.6-0.38
			c0.5-0.06,0.93,0.31,1,0.95c0.1,0.76-0.34,1.2-0.82,1.26c-0.25,0.03-0.49-0.03-0.68-0.26h-0.01l0.01,0.29L55.24,24.55z
			 M55.79,23.57c0.01,0.04,0.02,0.08,0.03,0.11c0.07,0.17,0.23,0.28,0.42,0.26c0.28-0.04,0.42-0.27,0.38-0.65
			c-0.04-0.33-0.22-0.57-0.53-0.53c-0.18,0.021-0.32,0.18-0.34,0.37c0,0.04,0,0.08,0,0.12L55.79,23.57z"/>
		<path d="M58.24,23.31c0.06,0.27,0.34,0.36,0.64,0.32c0.22-0.03,0.4-0.08,0.57-0.16l0.14,0.43c-0.2,0.11-0.46,0.19-0.74,0.23
			c-0.71,0.09-1.17-0.27-1.26-0.93c-0.07-0.53,0.19-1.16,0.92-1.26c0.68-0.09,1,0.41,1.07,0.93c0.01,0.11,0.01,0.21,0.01,0.26
			L58.24,23.31z M58.95,22.76c-0.02-0.16-0.12-0.42-0.42-0.38c-0.28,0.04-0.36,0.3-0.35,0.48L58.95,22.76z"/>
	</g>
	<g display="inline">
		<path d="M29.61,32.48l0.31,2.23c0.03,0.22,0.07,0.45,0.1,0.58l-0.53,0.08l-0.07-0.28h-0.01c-0.09,0.24-0.31,0.38-0.56,0.41
			c-0.46,0.06-0.88-0.28-0.97-0.88c-0.1-0.65,0.26-1.09,0.72-1.15c0.24-0.03,0.44,0.021,0.54,0.15h0.01L29,32.57L29.61,32.48z
			 M29.25,34.26c0-0.03-0.01-0.08-0.02-0.11c-0.06-0.16-0.21-0.27-0.39-0.25c-0.27,0.04-0.38,0.3-0.34,0.61
			c0.05,0.33,0.24,0.51,0.49,0.48c0.17-0.021,0.3-0.16,0.31-0.34c0.01-0.05,0-0.09,0-0.14L29.25,34.26z"/>
		<path d="M30.76,32.66c0.02,0.17-0.08,0.32-0.28,0.35c-0.19,0.03-0.34-0.09-0.35-0.26c-0.03-0.17,0.08-0.32,0.27-0.35
			C30.59,32.37,30.74,32.48,30.76,32.66z M30.49,35.22l-0.27-1.939l0.6-0.08l0.27,1.94L30.49,35.22z"/>
		<path d="M31.5,34.54c0.12,0.05,0.36,0.1,0.54,0.07c0.18-0.03,0.25-0.1,0.23-0.2c-0.01-0.1-0.08-0.14-0.32-0.18
			c-0.42-0.08-0.6-0.27-0.63-0.5c-0.05-0.36,0.22-0.68,0.7-0.74c0.23-0.03,0.43-0.01,0.56,0.03l-0.05,0.43
			c-0.09-0.04-0.27-0.08-0.44-0.05c-0.15,0.02-0.22,0.09-0.21,0.19c0.01,0.09,0.09,0.13,0.34,0.18c0.39,0.08,0.57,0.24,0.61,0.52
			c0.05,0.36-0.2,0.67-0.75,0.74c-0.25,0.04-0.49,0.01-0.65-0.05L31.5,34.54z"/>
		<path d="M33.62,32.24l0.08,0.55l0.43-0.06l0.06,0.44l-0.43,0.06l0.1,0.7c0.03,0.23,0.1,0.33,0.29,0.31
			c0.08-0.01,0.13-0.03,0.18-0.04l0.07,0.46c-0.08,0.04-0.21,0.08-0.38,0.11c-0.19,0.03-0.37-0.02-0.48-0.1
			c-0.13-0.1-0.21-0.28-0.25-0.55l-0.11-0.79l-0.26,0.04l-0.06-0.44l0.26-0.04l-0.06-0.42L33.62,32.24z"/>
		<path d="M36.49,33.74c0.04,0.25,0.07,0.46,0.1,0.62l-0.52,0.07L36,34.17h-0.01c-0.06,0.13-0.21,0.35-0.56,0.4
			c-0.39,0.06-0.72-0.15-0.8-0.75l-0.16-1.14l0.61-0.08l0.15,1.04c0.04,0.28,0.15,0.44,0.36,0.41c0.17-0.02,0.25-0.15,0.27-0.25
			c0.01-0.04,0.01-0.08,0-0.13l-0.16-1.15l0.61-0.09L36.49,33.74z"/>
		<path d="M36.88,33c-0.04-0.29-0.07-0.47-0.1-0.64l0.52-0.07l0.07,0.35h0.02c0.06-0.29,0.28-0.45,0.47-0.47
			c0.06-0.01,0.08-0.01,0.13-0.01l0.08,0.57c-0.04,0-0.1,0-0.17,0.01c-0.22,0.03-0.36,0.17-0.37,0.36c0,0.04,0,0.09,0.01,0.14
			l0.14,0.979l-0.6,0.08L36.88,33z"/>
		<path d="M38.54,34.09c-0.01-0.13-0.04-0.36-0.07-0.58l-0.31-2.229l0.6-0.08l0.16,1.11h0.01c0.09-0.18,0.28-0.32,0.55-0.36
			c0.46-0.06,0.86,0.27,0.94,0.87c0.1,0.7-0.3,1.11-0.74,1.17c-0.23,0.03-0.45-0.021-0.63-0.23h-0.01l0.01,0.27L38.54,34.09z
			 M39.04,33.18c0.01,0.04,0.01,0.07,0.03,0.11c0.06,0.16,0.22,0.26,0.39,0.24c0.26-0.04,0.39-0.26,0.34-0.6
			c-0.04-0.3-0.21-0.52-0.49-0.48c-0.16,0.02-0.3,0.17-0.31,0.35c0,0.04,0,0.07,0,0.11L39.04,33.18z"/>
		<path d="M41.29,32.91c0.06,0.25,0.32,0.33,0.6,0.29c0.21-0.03,0.37-0.08,0.52-0.16l0.14,0.4c-0.19,0.11-0.42,0.18-0.68,0.22
			c-0.66,0.09-1.09-0.23-1.17-0.84c-0.07-0.49,0.16-1.08,0.83-1.17c0.63-0.09,0.93,0.37,1,0.85c0.01,0.1,0.02,0.2,0.01,0.24
			L41.29,32.91z M41.94,32.4c-0.02-0.15-0.12-0.38-0.4-0.34c-0.25,0.04-0.32,0.28-0.32,0.44L41.94,32.4z"/>
		<path d="M44.51,30.38l0.31,2.23c0.03,0.22,0.07,0.45,0.1,0.58l-0.53,0.08l-0.07-0.28h-0.01c-0.09,0.24-0.31,0.38-0.56,0.41
			c-0.46,0.06-0.88-0.28-0.97-0.88c-0.1-0.65,0.26-1.09,0.72-1.15c0.24-0.03,0.44,0.02,0.54,0.15h0.01l-0.15-1.05L44.51,30.38z
			 M44.14,32.16c0-0.03-0.01-0.08-0.02-0.11c-0.06-0.16-0.21-0.27-0.39-0.25c-0.27,0.04-0.38,0.3-0.34,0.61
			c0.05,0.33,0.24,0.51,0.49,0.48c0.17-0.02,0.3-0.16,0.31-0.34c0.01-0.05,0-0.09,0-0.14L44.14,32.16z"/>
		<path d="M45.33,32.24l-0.34-1.78l0.63-0.09l0.17,1.8L45.33,32.24z M45.28,32.82c-0.03-0.21,0.1-0.38,0.31-0.41
			c0.21-0.03,0.37,0.1,0.4,0.31c0.03,0.21-0.09,0.38-0.3,0.41C45.48,33.16,45.3,33.02,45.28,32.82z"/>
	</g>
</g>
<g id="Layer_2">
	<ellipse fill="#699DFF" cx="153.993" cy="27.427" rx="0.892" ry="0.411"/>
	<ellipse fill="#699DFF" cx="161.222" cy="27.427" rx="0.892" ry="0.411"/>
	<g>
		<path fill="#699DFF" d="M150.983,23.356c0,0-0.163-0.014-0.439-0.042c-0.142-0.014-0.312-0.049-0.495-0.042
			c-0.19,0.007-0.383-0.028-0.609,0c-0.22,0.021-0.46,0.028-0.701,0.085c-0.247,0.029-0.474,0.135-0.722,0.206
			c-0.227,0.113-0.46,0.226-0.659,0.39c-0.113,0.063-0.197,0.163-0.283,0.255c-0.091,0.084-0.177,0.177-0.24,0.29
			c-0.155,0.198-0.248,0.439-0.332,0.68c-0.029,0.128-0.058,0.248-0.1,0.369c-0.008,0.127-0.021,0.262-0.029,0.382
			c-0.014,0.255,0.021,0.51,0.035,0.758c0.064,0.241,0.086,0.481,0.15,0.701c0.069,0.212,0.126,0.418,0.177,0.602
			c0.07,0.177,0.127,0.333,0.177,0.46c0.099,0.262,0.148,0.417,0.148,0.417s-0.121-0.106-0.325-0.304
			c-0.1-0.106-0.228-0.219-0.354-0.382c-0.113-0.163-0.248-0.347-0.383-0.56s-0.234-0.474-0.347-0.744
			c-0.078-0.283-0.185-0.587-0.198-0.92c-0.007-0.169-0.007-0.34-0.015-0.517c0.021-0.177,0.05-0.354,0.085-0.531
			c0.093-0.347,0.234-0.708,0.454-1.012c0.099-0.163,0.227-0.297,0.361-0.425c0.126-0.135,0.268-0.255,0.424-0.347
			c0.298-0.22,0.638-0.326,0.956-0.439c0.326-0.078,0.644-0.127,0.942-0.113c0.297-0.021,0.573,0.05,0.82,0.092
			c0.248,0.028,0.468,0.149,0.659,0.212c0.198,0.064,0.332,0.163,0.453,0.234C150.849,23.264,150.983,23.356,150.983,23.356z"/>
	</g>
	<g>
		<path fill="#699DFF" d="M163.905,23.484c0,0,0.135-0.085,0.382-0.206c0.12-0.064,0.271-0.142,0.439-0.212
			c0.185-0.057,0.396-0.127,0.638-0.191c0.241-0.071,0.509-0.071,0.793-0.099c0.283,0.006,0.602,0.014,0.92,0.106
			c0.156,0.05,0.319,0.106,0.481,0.156c0.156,0.071,0.305,0.163,0.461,0.262c0.289,0.206,0.573,0.46,0.765,0.765
			c0.112,0.148,0.198,0.305,0.263,0.474c0.069,0.163,0.146,0.333,0.169,0.503c0.1,0.339,0.092,0.68,0.1,1.006
			c-0.035,0.318-0.071,0.629-0.178,0.898c-0.05,0.135-0.077,0.27-0.134,0.396c-0.064,0.121-0.121,0.234-0.185,0.34
			c-0.1,0.227-0.255,0.397-0.375,0.545c-0.113,0.163-0.241,0.276-0.347,0.368c-0.206,0.185-0.334,0.284-0.334,0.284
			s0.057-0.156,0.163-0.397c0.057-0.12,0.121-0.269,0.171-0.446c0.049-0.177,0.127-0.361,0.169-0.573
			c0.05-0.213,0.093-0.439,0.114-0.673c0.042-0.234,0.007-0.489,0.021-0.737c-0.037-0.248-0.071-0.496-0.149-0.736
			c-0.021-0.127-0.085-0.233-0.142-0.347c-0.043-0.12-0.106-0.227-0.185-0.318c-0.12-0.212-0.312-0.375-0.488-0.531
			c-0.105-0.063-0.198-0.142-0.298-0.212c-0.113-0.049-0.226-0.106-0.332-0.155c-0.227-0.085-0.468-0.149-0.694-0.206
			c-0.233-0.014-0.467-0.085-0.68-0.078c-0.212,0-0.41-0.015-0.595-0.021c-0.191,0.014-0.354,0.021-0.489,0.028
			C164.061,23.491,163.905,23.484,163.905,23.484z"/>
	</g>
	<g>
		<path fill="#699DFF" d="M160.018,36.895c0,0,0,0.106-0.014,0.297c0,0.191-0.049,0.454-0.155,0.779
			c-0.051,0.163-0.143,0.326-0.233,0.503c-0.121,0.163-0.234,0.347-0.411,0.488c-0.086,0.071-0.177,0.149-0.276,0.22
			c-0.106,0.057-0.212,0.113-0.325,0.163c-0.234,0.078-0.481,0.142-0.73,0.142c-0.127,0.007-0.247-0.014-0.368-0.035
			c-0.12-0.015-0.24-0.043-0.354-0.092c-0.233-0.063-0.425-0.206-0.615-0.318c-0.348-0.27-0.617-0.581-0.772-0.885
			c-0.092-0.141-0.135-0.291-0.185-0.418c-0.056-0.12-0.078-0.24-0.092-0.333c-0.035-0.191-0.043-0.297-0.043-0.297
			s0.064,0.084,0.177,0.241c0.051,0.078,0.114,0.163,0.199,0.262c0.085,0.093,0.163,0.205,0.276,0.305
			c0.105,0.106,0.22,0.212,0.354,0.312c0.121,0.113,0.283,0.184,0.425,0.283c0.155,0.071,0.319,0.149,0.489,0.191
			c0.084,0.036,0.17,0.05,0.254,0.057c0.086,0.014,0.17,0.028,0.255,0.014c0.17,0.015,0.334-0.028,0.496-0.071
			c0.078-0.035,0.148-0.063,0.234-0.092c0.069-0.042,0.141-0.092,0.212-0.134c0.142-0.092,0.256-0.212,0.376-0.319
			c0.091-0.135,0.212-0.241,0.297-0.369c0.077-0.12,0.155-0.233,0.228-0.339c0.062-0.113,0.112-0.212,0.162-0.297
			C159.961,36.986,160.018,36.895,160.018,36.895z"/>
	</g>
	<g>
		<path fill="#699DFF" d="M150.764,23.462c0,0,0.715-0.517,1.919-1.055c0.602-0.27,1.323-0.545,2.117-0.758
			c0.396-0.106,0.82-0.191,1.246-0.269c0.432-0.049,0.871-0.142,1.317-0.135l0.664-0.028c0.221,0,0.44,0.021,0.659,0.035
			c0.44,0.007,0.864,0.085,1.282,0.17c0.41,0.071,0.8,0.205,1.154,0.347c0.177,0.071,0.354,0.135,0.523,0.198
			c0.156,0.085,0.312,0.163,0.46,0.241c0.29,0.163,0.566,0.298,0.786,0.453c0.22,0.163,0.404,0.305,0.553,0.425
			c0.305,0.241,0.468,0.383,0.468,0.383l-0.03,0.042c0,0-0.197-0.092-0.537-0.269c-0.17-0.085-0.374-0.191-0.602-0.319
			c-0.233-0.127-0.524-0.205-0.814-0.34c-0.147-0.064-0.298-0.127-0.46-0.198c-0.163-0.049-0.34-0.099-0.51-0.149
			c-0.354-0.099-0.715-0.233-1.111-0.29c-0.391-0.092-0.794-0.177-1.211-0.212c-0.206-0.021-0.419-0.057-0.631-0.064l-0.637-0.007
			c-0.432-0.021-0.856,0.05-1.274,0.078c-0.419,0.056-0.829,0.12-1.226,0.205c-0.786,0.177-1.515,0.403-2.124,0.637
			c-1.218,0.46-1.961,0.928-1.961,0.928L150.764,23.462z"/>
	</g>
	<g>
		<path fill="#699DFF" d="M146.231,27.427c0,0-0.502,0.17-1.387,0.468c-0.885,0.283-2.118,0.765-3.605,1.324
			c-0.736,0.305-1.536,0.602-2.372,0.963c-0.836,0.347-1.714,0.729-2.613,1.14c-0.913,0.382-1.812,0.864-2.747,1.31
			c-0.935,0.446-1.841,0.977-2.776,1.465c-0.899,0.539-1.819,1.048-2.69,1.607c-0.843,0.595-1.735,1.091-2.514,1.7
			c-0.396,0.298-0.779,0.587-1.161,0.871c-0.191,0.142-0.382,0.276-0.566,0.418c-0.177,0.148-0.347,0.297-0.517,0.446
			c-0.666,0.602-1.359,1.119-1.912,1.678c-0.552,0.559-1.069,1.069-1.529,1.522c-0.454,0.453-0.779,0.914-1.083,1.261
			c-0.595,0.708-0.949,1.112-0.949,1.112s0.276-0.454,0.786-1.232c0.27-0.383,0.545-0.885,0.949-1.395
			c0.411-0.503,0.871-1.077,1.395-1.693c0.524-0.616,1.176-1.189,1.827-1.841c0.17-0.163,0.333-0.318,0.503-0.488
			c0.184-0.149,0.368-0.305,0.552-0.46c0.375-0.305,0.757-0.616,1.147-0.935c0.382-0.326,0.8-0.623,1.225-0.914
			c0.424-0.291,0.856-0.595,1.289-0.892c0.877-0.581,1.812-1.111,2.726-1.671c0.956-0.489,1.89-1.013,2.839-1.459
			c0.956-0.446,1.89-0.877,2.825-1.246c0.92-0.396,1.834-0.722,2.697-1.027c0.857-0.325,1.692-0.559,2.457-0.8
			c1.537-0.453,2.833-0.75,3.738-0.956C145.707,27.498,146.231,27.427,146.231,27.427z"/>
	</g>
	<g>
		<path fill="#699DFF" d="M112.301,61.727c0,0-0.227-0.121-0.616-0.34c-0.199-0.142-0.411-0.184-0.708-0.262
			c-0.291-0.07-0.63-0.127-0.991-0.169c-0.354-0.035-0.772-0.05-1.069,0.049c-0.156,0.057-0.163,0.106-0.149,0.128
			c0.007,0.021,0,0.028,0.007,0.049l0.021,0.17c0.014,0.121,0.035,0.205,0.057,0.312l0.078,0.333
			c0.029,0.127,0.064,0.233,0.078,0.467c-0.014,0.092,0,0.135-0.049,0.262s-0.135,0.227-0.248,0.298
			c-0.212,0.127-0.347,0.105-0.432,0.113c-0.198,0-0.325-0.028-0.46-0.042c-0.248-0.05-0.496-0.1-0.744-0.142
			c-0.042-0.007-0.049,0-0.056,0c0.007,0,0.021,0,0.07-0.021c0.042-0.014,0.134-0.078,0.177-0.163
			c0.084-0.177,0.028-0.212,0.05-0.191c0.006,0.014,0.021,0.057,0.042,0.106c0.078,0.198,0.212,0.439,0.297,0.772
			c0.036,0.17,0.085,0.389-0.014,0.672c-0.106,0.297-0.375,0.475-0.56,0.539c-0.099,0.042-0.184,0.056-0.276,0.07
			c-0.099,0.015-0.12,0.021-0.283,0.028c-0.127-0.007-0.24-0.007-0.389-0.035l-0.199-0.028l-0.127-0.007
			c-0.049-0.007-0.07,0-0.092,0.007l-0.035,0.007h-0.021h-0.007h-0.007c0.021-0.014-0.056,0.028,0.049-0.028h-0.007
			c-0.036,0.015-0.156,0.099-0.057,0.021c0.042-0.057,0.057-0.106,0.057-0.134c-0.015-0.064-0.007,0.014,0.035,0.077
			c0.071,0.149,0.212,0.319,0.347,0.496c0.071,0.092,0.142,0.169,0.234,0.347l0.035,0.078c0.014,0.05,0.028,0.12,0.021,0.177v0.042
			c-0.007,0.029,0.014-0.035-0.014,0.071v0.007l-0.007,0.021l-0.014,0.035l-0.063,0.149c-0.22,0.39-0.545,0.439-0.772,0.467
			c-0.46,0.029-0.793-0.084-1.013-0.042c-0.177,0-0.22,0.255-0.205,0.467c0.014,0.213,0.05,0.39,0.071,0.504
			c0.021,0.12,0.035,0.184,0.035,0.184c0.014-0.007-0.155-0.205-0.312-0.645c-0.035-0.114-0.071-0.24-0.063-0.411
			c-0.014-0.17,0.142-0.397,0.347-0.474c0.375-0.142,0.757-0.092,1.055-0.17c0.148-0.028,0.219-0.134,0.206-0.12l0.042-0.148
			l0.007-0.036l0.007-0.021v-0.007l-0.015,0.064l-0.007,0.028c-0.007,0.035,0,0.077,0.014,0.1v0.006l-0.156-0.163
			c-0.148-0.149-0.319-0.311-0.488-0.552c-0.078-0.121-0.191-0.27-0.191-0.567c0-0.141,0.049-0.318,0.177-0.453
			c0.17-0.178,0.163-0.135,0.227-0.185h0.007c0.106-0.057,0.036-0.014,0.064-0.027l0.014-0.007l0.036-0.007l0.063-0.021l0.135-0.035
			c0.092-0.028,0.184-0.042,0.262-0.042h0.234l0.163,0.014c0.092,0.014,0.227,0.007,0.347,0.007c-0.035,0,0.064-0.007,0.092-0.014
			c0.035-0.007,0.071-0.014,0.084-0.028c0.043-0.021-0.007-0.007-0.021,0.049c-0.014,0.043,0,0.008-0.028-0.071
			c-0.042-0.155-0.156-0.361-0.269-0.63c-0.028-0.071-0.057-0.148-0.085-0.255c-0.014-0.099-0.085-0.269,0.064-0.559
			c0.078-0.142,0.219-0.241,0.318-0.283c0.106-0.042,0.184-0.05,0.255-0.057c0.121-0.007,0.241,0.007,0.319,0.021
			c0.248,0.057,0.488,0.106,0.729,0.163c0.106,0.021,0.226,0.042,0.276,0.042c0.028,0.015,0.028-0.014-0.078,0.049
			c-0.057,0.043-0.106,0.093-0.134,0.163c-0.021,0.078-0.021,0.057-0.014,0.085c0.007-0.064-0.057-0.397-0.085-0.623
			c-0.014-0.121-0.036-0.276-0.036-0.39l-0.007-0.177c0-0.092,0.014-0.198,0.028-0.297c0.042-0.199,0.177-0.411,0.34-0.517
			c0.156-0.113,0.318-0.17,0.453-0.191c0.559-0.099,0.977,0.021,1.374,0.12c0.39,0.106,0.723,0.241,1.013,0.383
			c0.283,0.127,0.566,0.312,0.701,0.475C112.125,61.535,112.301,61.727,112.301,61.727z"/>
	</g>
	<g>
		<path fill="#699DFF" d="M120.359,50.256c0,0-0.057-0.199-0.163-0.56c-0.106-0.361-0.283-0.892-0.538-1.551
			c-0.255-0.658-0.616-1.438-1.154-2.244c-0.545-0.793-1.296-1.608-2.308-2.181c-1.006-0.587-2.273-0.871-3.611-0.878
			c-0.163,0.007-0.354,0-0.488,0.015l-0.531,0.042c-0.319,0.057-0.637,0.12-0.963,0.226c-0.644,0.213-1.274,0.531-1.841,0.963
			c-1.154,0.857-2.082,2.089-2.846,3.427c-0.765,1.345-1.359,2.832-1.827,4.354c-0.475,1.522-0.821,3.087-1.013,4.63
			c-0.042,0.383-0.085,0.772-0.106,1.154c-0.021,0.396-0.057,0.793-0.049,1.168c-0.021,0.75,0.014,1.522,0.078,2.259
			c0.135,1.479,0.383,2.91,0.751,4.234c0.347,1.288,0.984,2.443,1.671,3.398c0.701,0.949,1.487,1.728,2.315,2.202
			c0.828,0.481,1.685,0.616,2.365,0.488c0.666-0.127,1.168-0.418,1.466-0.637c0.156-0.113,0.269-0.206,0.34-0.27
			c0.071-0.063,0.112-0.099,0.112-0.099s-0.035,0.035-0.099,0.106c-0.063,0.07-0.17,0.177-0.312,0.304
			c-0.291,0.249-0.744,0.603-1.466,0.794c-0.701,0.184-1.657,0.113-2.577-0.341c-0.928-0.445-1.827-1.21-2.599-2.188
			c-0.771-0.977-1.487-2.145-1.933-3.533c-0.432-1.345-0.771-2.818-0.935-4.361c-0.085-0.772-0.135-1.558-0.135-2.365
			c-0.014-0.411,0.015-0.8,0.021-1.197c0.015-0.411,0.057-0.814,0.1-1.225c0.191-1.622,0.538-3.236,1.02-4.822
			c0.496-1.579,1.125-3.116,1.947-4.546c0.822-1.423,1.862-2.726,3.18-3.668c0.659-0.467,1.381-0.835,2.138-1.041
			c0.375-0.106,0.765-0.17,1.161-0.212l0.531-0.021c0.219-0.007,0.375,0.006,0.56,0.014c1.438,0.07,2.818,0.446,3.894,1.14
			c1.091,0.673,1.827,1.607,2.337,2.479c0.503,0.877,0.807,1.699,1.02,2.379c0.212,0.679,0.326,1.232,0.403,1.607
			C120.316,50.057,120.359,50.256,120.359,50.256z"/>
	</g>
	<g>
		<path fill="#699DFF" d="M140.348,34.175l-2.882,1.487c-0.928,0.553-1.87,1.076-2.79,1.636c-0.892,0.602-1.812,1.169-2.69,1.799
			c-0.857,0.651-1.756,1.246-2.578,1.947c-0.835,0.68-1.678,1.353-2.471,2.075c-0.404,0.361-0.814,0.708-1.204,1.077l-1.162,1.119
			c-0.786,0.736-1.501,1.537-2.251,2.308c-0.708,0.808-1.438,1.593-2.11,2.436c-0.694,0.822-1.346,1.678-1.998,2.528l-0.941,1.303
			l-0.906,1.331c-0.588,0.899-1.176,1.792-1.721,2.719c-0.262,0.439-0.538,0.934-0.779,1.402c-0.233,0.467-0.46,0.941-0.651,1.43
			c-0.396,0.977-0.729,1.982-0.935,3.009c-0.212,1.005-0.368,2.11-0.304,3.08c0.091,1.048,0.241,2.117,0.446,3.144
			c0.106,0.51,0.234,1.026,0.403,1.48c0.071,0.212,0.227,0.452,0.241,0.452c-0.007-0.014-0.028-0.021-0.042-0.021
			c-0.028-0.014-0.071-0.021-0.099-0.007c-0.028-0.007-0.057,0-0.078,0.021c-0.007,0-0.007,0-0.014,0
			c0.014-0.008,0.071-0.085,0.12-0.17l0.786,0.609c0.014,0,0.028-0.015,0.021-0.021c-0.049,0.078-0.106,0.155-0.163,0.219
			l-0.686-0.729c-0.078,0.077-0.021,0.021-0.007-0.036c0.021-0.057,0.042-0.127,0.063-0.197l0.135-0.468
			c0.106-0.333,0.17-0.651,0.439-1.062c0.085-0.107,0.163-0.242,0.41-0.341l0.085-0.027c-0.021-0.008,0.347-0.021,0.198-0.015h0.015
			l0.063,0.007c0.099,0.021,0.22,0.078,0.312,0.155c0.049,0.037,0.085,0.086,0.121,0.128l0.036,0.057
			c0.163,0.325,0.148,0.481,0.184,0.681c0.042,0.36,0.049,0.693,0.063,1.019c0.014,0.297,0.042,0.681,0.092,0.808v0.007l0,0
			c-0.007-0.014-0.015-0.028-0.021-0.035c-0.014-0.021-0.042-0.043-0.071-0.057c0.028,0.014-0.368-0.149-0.191-0.078
			c0,0,0.028,0.007,0,0c-0.127-0.042-0.347,0.049-0.389,0.106c-0.063,0.057-0.042,0.05-0.036,0.028l0.036-0.078l0.184-0.425
			c0.127-0.305,0.255-0.616,0.453-0.963c0.057-0.086,0.106-0.177,0.205-0.283c0.05-0.049,0.106-0.113,0.213-0.177
			c0.092-0.057,0.297-0.135,0.503-0.078c0.403,0.148,0.417,0.339,0.496,0.452c0.056,0.12,0.084,0.22,0.113,0.319
			c0.092,0.361,0.149,0.645,0.248,0.9c0.021,0.056,0.05,0.105,0.057,0.12c-0.007-0.008,0.007,0-0.057-0.051
			c-0.05-0.043-0.255-0.091-0.361-0.027c-0.163,0.092-0.092,0.084-0.085,0.035c0.021-0.043,0.05-0.099,0.078-0.171l0.34-0.92
			c0.071-0.17,0.134-0.332,0.283-0.545c0.078-0.092,0.17-0.263,0.496-0.348c0.085,0-0.106-0.015,0.205-0.006h0.014l0.028,0.006
			l0.029,0.007c0.028,0.009,0.099,0.029,0.142,0.057c0.106,0.051,0.212,0.164,0.248,0.228l0.064,0.128
			c0.113,0.304,0.106,0.474,0.12,0.658l0.014,0.51c0.007,0.312,0.014,0.665,0.071,0.82c0.007,0.029,0.007,0.022,0.007,0.022
			c0,0.014-0.015-0.029-0.057-0.05l-0.014-0.007l-0.177-0.057l0.028,0.007l0.028,0.007c0.028,0.007-0.007-0.007-0.057-0.014
			c-0.085-0.015-0.184,0.021-0.241,0.07c-0.028,0.028-0.014,0.007-0.021,0.014c-0.007,0.015,0,0,0.014-0.027
			c0.014-0.021,0.021-0.036,0.035-0.071c0.028-0.057,0.057-0.12,0.078-0.185c0.106-0.269,0.191-0.58,0.284-0.892l0.134-0.481
			c0.021-0.084,0.05-0.163,0.085-0.27l0.028-0.078c0.014-0.035,0.05-0.105,0.085-0.155c-0.014,0.015,0.05-0.063,0.042-0.057
			l0.007-0.014l0.021-0.021l0.042-0.043c0.064-0.056,0.142-0.134,0.269-0.185c0.071-0.026,0.127-0.048,0.219-0.048
			c0.092,0,0.199,0.013,0.27,0.048c0.325,0.171,0.34,0.327,0.411,0.433c0.099,0.228,0.134,0.396,0.17,0.573l0.177,0.971
			c0.029,0.142,0.079,0.297,0.092,0.325c-0.007-0.014,0.007-0.014-0.078-0.071c-0.028-0.013-0.092-0.049-0.163-0.049
			c-0.078,0.007-0.099,0-0.149,0.021c-0.106,0.057-0.049,0.035-0.035,0c0.134-0.192,0.24-0.475,0.396-0.8l0.417-0.899
			c0.248-0.603,0.637-1.19,0.949-1.785c0.347-0.579,0.708-1.133,1.076-1.691c0.389-0.538,0.765-1.098,1.175-1.615
			c0.814-1.055,1.65-2.082,2.528-3.066c1.749-1.976,3.512-3.937,5.417-5.792c1.912-1.834,3.958-3.562,6.28-4.886
			c1.161-0.658,2.393-1.189,3.682-1.558l0.482-0.135l0.121-0.035c0.07-0.014,0.091-0.014,0.141-0.021l0.241-0.036
			c0.163-0.021,0.319-0.063,0.496-0.063l0.531,0.007c0.687,0.071,1.374,0.276,1.919,0.694c1.111,0.814,1.792,2.025,2.273,3.25
			c0.481,1.232,0.771,2.527,0.977,3.831c-0.255-1.289-0.609-2.563-1.133-3.767c-0.511-1.189-1.226-2.351-2.28-3.066
			c-0.517-0.375-1.154-0.538-1.763-0.581h-0.459c-0.156,0.007-0.319,0.057-0.482,0.078l-0.241,0.042l-0.106,0.021l-0.113,0.036
			l-0.468,0.148c-1.239,0.396-2.408,0.963-3.533,1.622c-2.237,1.331-4.213,3.066-6.061,4.914c-1.834,1.855-3.554,3.852-5.254,5.849
			c-0.85,0.999-1.678,2.011-2.464,3.051c-0.404,0.517-0.758,1.056-1.14,1.587c-0.347,0.545-0.708,1.09-1.034,1.642
			c-0.298,0.574-0.638,1.092-0.893,1.706l-0.411,0.9c-0.127,0.269-0.24,0.616-0.481,0.964c-0.078,0.091-0.127,0.204-0.382,0.332
			c-0.084,0.028-0.148,0.057-0.262,0.042c-0.106-0.007-0.22-0.042-0.276-0.084c-0.156-0.106-0.191-0.177-0.241-0.255
			c-0.142-0.263-0.163-0.426-0.206-0.61l-0.191-0.97c-0.028-0.142-0.071-0.289-0.106-0.367c0-0.036-0.064-0.042,0.106,0.056
			c0.234,0.07,0.319-0.042,0.319-0.042l-0.042,0.05l-0.021,0.021l-0.007,0.014c-0.014,0.014,0.049-0.057,0.028-0.029
			c0.014-0.014,0.028-0.048,0.028-0.048l-0.015,0.034l-0.063,0.206l-0.128,0.475c-0.084,0.325-0.177,0.645-0.304,0.991
			c-0.071,0.177-0.121,0.34-0.319,0.588c-0.035,0.034-0.042,0.056-0.106,0.105c-0.092,0.071-0.227,0.12-0.348,0.136
			c-0.163,0.006-0.099,0-0.141-0.009l-0.028-0.007c-0.333-0.113-0.113-0.049-0.198-0.078l-0.036-0.027
			c-0.1-0.078-0.184-0.17-0.212-0.233c-0.042-0.078-0.085-0.156-0.1-0.206c-0.141-0.475-0.113-0.786-0.134-1.133l-0.014-0.475
			c-0.007-0.134-0.042-0.304-0.042-0.304c0,0.007,0.007,0.007,0.014,0.014c0.014,0.036,0.092,0.113,0.163,0.134
			c0.028,0.015,0.092,0.022,0.099,0.022l-0.028-0.008l-0.028-0.007h-0.015c0.305,0.007,0.1,0,0.177,0
			c0.163-0.05,0.142-0.093,0.121-0.05c-0.042,0.057-0.106,0.198-0.156,0.333c-0.114,0.283-0.206,0.594-0.34,0.935
			c-0.035,0.085-0.078,0.177-0.134,0.276c-0.071,0.092-0.092,0.226-0.404,0.403c-0.177,0.092-0.481,0.042-0.595-0.057
			c-0.134-0.092-0.177-0.163-0.227-0.233c-0.078-0.121-0.12-0.22-0.163-0.319c-0.141-0.36-0.219-0.729-0.29-0.998
			c-0.014-0.057-0.035-0.121-0.049-0.148c0.007-0.028-0.064,0,0.177,0.1c0.128,0.034,0.241-0.015,0.269-0.029
			c0.036-0.021,0.036-0.027,0.028-0.021c-0.014,0.015-0.049,0.063-0.078,0.113c-0.134,0.226-0.254,0.53-0.375,0.828
			c-0.064,0.155-0.128,0.305-0.206,0.481l-0.078,0.142c-0.035,0.05-0.057,0.113-0.177,0.233c-0.056,0.071-0.297,0.17-0.439,0.142
			l-0.035-0.007c0.17,0.063-0.241-0.092-0.22-0.092c-0.056-0.043-0.106-0.093-0.148-0.148c-0.05-0.064-0.078-0.107-0.092-0.135
			l-0.05-0.107c-0.092-0.261-0.106-0.438-0.127-0.622s-0.028-0.354-0.035-0.517c-0.014-0.334-0.021-0.658-0.057-0.949
			c-0.007-0.127-0.057-0.312-0.049-0.276c0,0,0,0,0.007,0c0.014,0.029,0.042,0.057,0.07,0.085c0.064,0.05,0.156,0.079,0.22,0.071
			l-0.064-0.007H114.1c-0.163,0.007,0.199-0.015,0.17-0.007c0.007,0,0.021,0,0.029-0.008c0.092-0.05,0.063-0.042,0.049-0.021
			c-0.099,0.135-0.206,0.468-0.298,0.758l-0.142,0.481c-0.028,0.085-0.056,0.17-0.092,0.27c-0.049,0.098-0.057,0.197-0.24,0.396
			l-0.687-0.729c-0.015,0-0.021,0.014-0.028,0.021c0.042-0.071,0.099-0.148,0.163-0.22l0.786,0.608
			c-0.092,0.149-0.17,0.298-0.368,0.468c-0.057,0.042-0.113,0.086-0.177,0.12c-0.085,0.035-0.177,0.064-0.27,0.077
			c-0.099,0-0.205-0.006-0.297-0.034c-0.078-0.029-0.148-0.071-0.219-0.113c-0.411-0.347-0.467-0.631-0.595-0.914
			c-0.212-0.559-0.333-1.097-0.446-1.642c-0.212-1.091-0.354-2.167-0.446-3.272c-0.057-1.189,0.113-2.251,0.34-3.349
			c0.226-1.09,0.58-2.145,1.005-3.166c0.205-0.509,0.453-1.012,0.701-1.508c0.262-0.496,0.51-0.942,0.808-1.43
			c0.559-0.935,1.154-1.848,1.77-2.747l0.949-1.332l0.984-1.303c0.68-0.85,1.353-1.707,2.068-2.521
			c0.694-0.835,1.452-1.614,2.181-2.421c0.772-0.765,1.508-1.565,2.315-2.287l1.197-1.104c0.404-0.361,0.828-0.708,1.239-1.062
			c0.814-0.722,1.685-1.366,2.549-2.025c0.85-0.68,1.777-1.246,2.663-1.869c0.899-0.602,1.84-1.14,2.761-1.713
			c0.942-0.531,1.905-1.034,2.854-1.551L140.348,34.175z"/>
	</g>
	<g>
		<path fill="#699DFF" d="M163.409,38.048c-0.97,0.878-1.699,1.983-2.131,3.194c-0.445,1.21-0.559,2.514-0.531,3.795
			c0.086,2.578,0.771,5.091,1.466,7.591c0.701,2.5,1.523,4.978,2.004,7.576c0.241,1.296,0.375,2.641,0.233,4l-0.013,0.128
			c-0.016,0.112-0.022,0.099-0.03,0.156l-0.048,0.24c-0.043,0.163-0.058,0.312-0.121,0.481c-0.142,0.34-0.256,0.716-0.461,0.999
			c-0.34,0.63-0.843,1.125-1.351,1.593c-1.056,0.893-2.281,1.495-3.527,1.969c-1.246,0.474-2.535,0.807-3.83,1.062
			c-2.599,0.495-5.227,0.701-7.86,0.693c-1.316-0.006-2.634-0.062-3.944-0.205c-1.31-0.141-2.62-0.339-3.916-0.665
			c-0.651-0.163-1.295-0.36-1.925-0.645c-0.333-0.148-0.602-0.283-0.97-0.538l-0.014-0.007c-0.014-0.007-0.049-0.049-0.071-0.078
			c-0.028-0.028-0.049-0.064-0.064-0.099c-0.021-0.042-0.042-0.113-0.056-0.169c-0.028-0.113,0.014-0.27,0.078-0.369
			c0.035-0.057,0.113-0.135,0.142-0.149c0.148-0.099,0.191-0.099,0.262-0.12c0.113-0.036,0.198-0.05,0.283-0.071l0.467-0.092
			c0.141-0.035,0.283-0.071,0.382-0.113c0.114-0.035,0.142-0.114,0.092-0.015l-0.007,0.036v0.006l0.014,0.128
			c0-0.008-0.007-0.029-0.007-0.021c0.015,0.07,0.049,0.141,0.099,0.19c0.05,0.05,0.028,0.029,0.05,0.042l0.028,0.014
			c-0.007-0.006-0.078-0.028-0.142-0.035c-0.135-0.028-0.291-0.049-0.446-0.078c-0.318-0.05-0.651-0.085-1.005-0.17
			c-0.177-0.05-0.361-0.084-0.595-0.22c-0.105-0.071-0.283-0.177-0.368-0.445c-0.078-0.284,0.042-0.51,0.121-0.624l0.084-0.128
			l0.12-0.042c0.51-0.177,0.85-0.162,1.204-0.226c0.17-0.022,0.34-0.057,0.453-0.092c0.05-0.014,0.1-0.043,0.071-0.029
			c0,0.007-0.036,0.035-0.036,0.072c-0.006,0.014-0.014,0.027-0.014,0.049v0.014v0.008c0.1,0.375,0.029,0.099,0.05,0.183
			l-0.021-0.028c0,0.028,0.057,0.12,0.113,0.148c0.043,0.021,0.043,0.021,0.028,0.014l-0.021-0.006
			c-0.021-0.007-0.057-0.021-0.099-0.036l-0.248-0.071l-0.539-0.134c-0.184-0.049-0.368-0.091-0.566-0.156
			c-0.099-0.035-0.198-0.064-0.311-0.12c-0.1-0.064-0.255-0.071-0.439-0.404c-0.042-0.12-0.063-0.248-0.021-0.382l0.021-0.063
			c-0.007-0.007,0.085-0.199,0.17-0.29c0.169-0.17,0.354-0.228,0.488-0.248c0.283-0.05,0.488-0.021,0.68,0
			c0.191,0.021,0.368,0.042,0.503,0.036c0.07,0,0.113-0.015,0.127-0.015c-0.014,0-0.007,0.007-0.035,0.021
			c-0.014,0.008-0.021,0.022-0.021,0.036c0.007-0.007-0.05,0.092-0.021,0.042v-0.006l0.007-0.015l0.014-0.028
			c-0.078,0.206,0.029,0.262,0.007,0.248c-0.007-0.014-0.063-0.049-0.12-0.078c-0.128-0.063-0.283-0.127-0.446-0.184l-0.517-0.17
			c-0.191-0.071-0.333-0.085-0.623-0.248c-0.035-0.029-0.099-0.057-0.191-0.198c-0.049-0.085-0.078-0.185-0.049-0.333
			c0.042-0.156,0.078-0.163,0.134-0.233c0.078-0.078,0.142-0.1,0.177-0.121l0.064-0.029c0.07-0.035,0.212-0.084,0.297-0.114
			c0.191-0.063,0.382-0.105,0.56-0.154c0.177-0.05,0.354-0.093,0.509-0.143c0.148-0.042,0.305-0.12,0.326-0.141
			c-0.007-0.007-0.021,0.056-0.015,0.07v0.007c-0.007-0.021,0.078,0.219,0.042,0.113l-0.006-0.007l-0.021-0.029
			c-0.021-0.049,0,0.036,0.021,0.057c0.092,0.071,0.028,0.021,0.006,0.021c-0.12-0.043-0.304-0.085-0.481-0.128
			c-0.368-0.092-0.722-0.127-1.175-0.368c-0.064-0.05-0.128-0.092-0.191-0.163c-0.071-0.099-0.135-0.191-0.142-0.34
			c-0.015-0.156,0.035-0.241,0.078-0.326l0.036-0.063c0.049-0.064,0.028-0.036,0.042-0.057l0.043-0.05l0.184-0.212l0.24-0.22
			c0.326-0.276,0.652-0.467,0.992-0.658c0.68-0.361,1.388-0.623,2.096-0.864c2.853-0.927,5.778-1.444,8.709-1.883
			c1.466-0.22,2.931-0.411,4.396-0.595l4.405-0.517c-2.919,0.51-5.842,0.928-8.745,1.487c-1.452,0.27-2.896,0.581-4.327,0.914
			c-1.43,0.333-2.86,0.715-4.227,1.204c-0.687,0.248-1.359,0.524-1.976,0.864c-0.297,0.177-0.608,0.368-0.842,0.581l-0.17,0.149
			l-0.177,0.212l-0.042,0.057c0,0-0.036,0.042,0,0h0.007c0-0.007,0-0.007,0.007-0.064c-0.014-0.049-0.014-0.071-0.035-0.092
			c0-0.007,0.014,0,0.021,0.014c0.198,0.106,0.595,0.177,0.941,0.248c0.184,0.042,0.368,0.071,0.595,0.149
			c0.064,0.035,0.092,0.014,0.255,0.141c0.057,0.043,0.134,0.142,0.127,0.142l0.021,0.028l0.007,0.007
			c-0.035-0.1,0.057,0.148,0.049,0.127l0.007,0.042c0.042,0.205-0.063,0.446-0.191,0.581c-0.248,0.234-0.453,0.29-0.652,0.368
			c-0.198,0.071-0.375,0.113-0.552,0.163c-0.177,0.049-0.347,0.099-0.502,0.156c-0.085,0.035-0.121,0.042-0.22,0.084l-0.063,0.028
			c0,0,0.014,0,0.063-0.042c0.043-0.049,0.057-0.049,0.099-0.177c0.021-0.127,0-0.205-0.035-0.269c-0.064-0.1-0.085-0.1-0.085-0.106
			c0.028,0.014,0.255,0.092,0.41,0.134l0.545,0.163c0.185,0.064,0.375,0.128,0.581,0.234c0.106,0.057,0.212,0.114,0.333,0.234
			c0.106,0.113,0.319,0.354,0.177,0.744l-0.015,0.035l-0.006,0.014l-0.036,0.064c-0.035,0.05-0.07,0.092-0.113,0.134
			c-0.085,0.085-0.177,0.121-0.269,0.17c-0.163,0.057-0.305,0.07-0.418,0.07c-0.234,0-0.425-0.021-0.602-0.035
			c-0.169-0.015-0.34-0.021-0.424-0.007c-0.043,0.007-0.036,0.022,0-0.014c0.035-0.014,0.056-0.141,0.028-0.05l-0.021,0.064
			c0.029-0.084,0.036-0.163-0.006-0.248c-0.093-0.17-0.078-0.084-0.007-0.07c0.05,0.028,0.134,0.05,0.205,0.078
			c0.156,0.05,0.333,0.092,0.503,0.135l0.539,0.128c0.092,0.021,0.184,0.042,0.29,0.077c0.05,0.014,0.1,0.029,0.163,0.057
			l0.042,0.021c0.007,0,0.028,0.007,0.092,0.043c0.092,0.05,0.191,0.163,0.227,0.22l0.021,0.028
			c0.021,0.085-0.042-0.184,0.057,0.198v0.021v0.049c-0.007,0.064-0.014,0.127-0.028,0.185c-0.049,0.12-0.12,0.234-0.191,0.297
			c-0.156,0.149-0.283,0.191-0.411,0.241c-0.234,0.085-0.432,0.113-0.63,0.142c-0.368,0.057-0.786,0.091-0.97,0.169l0.205-0.163
			c-0.007,0.015,0.042-0.042,0.007-0.17c-0.042-0.113-0.078-0.113-0.049-0.1c0.049,0.029,0.191,0.078,0.326,0.107
			c0.283,0.063,0.595,0.105,0.92,0.148c0.163,0.021,0.326,0.043,0.51,0.085c0.099,0.021,0.184,0.036,0.326,0.099
			c0.042,0.021,0.07,0.028,0.134,0.071c0.036,0.028,0.036,0.021,0.099,0.077c0.064,0.064,0.114,0.156,0.142,0.241l0.007,0.035
			c0.029,0.248,0.007,0.091,0.007,0.156v0.035c-0.007,0.05-0.015,0.099-0.036,0.149c-0.163,0.411-0.446,0.509-0.623,0.602
			c-0.198,0.084-0.375,0.127-0.545,0.17l-0.489,0.105c-0.071,0.015-0.148,0.037-0.191,0.05c-0.007,0-0.05,0.028,0.036-0.029
			c0.007-0.006,0.078-0.063,0.099-0.105c0.057-0.079,0.085-0.221,0.063-0.312c-0.007-0.049-0.028-0.106-0.049-0.142
			c-0.014-0.028-0.028-0.05-0.05-0.071c-0.014-0.021-0.049-0.05-0.056-0.05l0.014,0.007l0.34,0.198
			c0.127,0.071,0.269,0.128,0.403,0.192c0.56,0.24,1.161,0.424,1.771,0.573c2.464,0.594,5.056,0.765,7.618,0.815
			c2.571,0.028,5.148-0.155,7.668-0.616c1.261-0.241,2.501-0.553,3.69-0.992c1.182-0.438,2.328-0.998,3.271-1.783
			c0.446-0.411,0.885-0.835,1.168-1.36c0.177-0.248,0.248-0.51,0.368-0.765c0.079-0.27,0.177-0.666,0.206-0.892
			c0.156-1.226,0.063-2.507-0.143-3.767c-0.41-2.535-1.16-5.027-1.812-7.548c-0.651-2.521-1.246-5.098-1.232-7.74
			c0.021-1.31,0.185-2.647,0.688-3.866C161.59,39.946,162.404,38.87,163.409,38.048z"/>
	</g>
	<g>
		<path fill="#699DFF" d="M150.777,23.484c0,0-0.141,0.127-0.403,0.368c-0.27,0.233-0.623,0.616-1.047,1.111
			c-0.426,0.502-0.872,1.162-1.262,1.976c-0.382,0.814-0.665,1.798-0.75,2.889c-0.078,1.09,0.064,2.287,0.489,3.462
			c0.431,1.168,1.118,2.316,2.038,3.314c0.907,1.013,2.083,1.82,3.363,2.415c1.296,0.574,2.727,0.899,4.171,0.892
			c0.722,0.014,1.444-0.035,2.131-0.206c0.658-0.155,1.339-0.424,1.954-0.757c1.239-0.68,2.358-1.579,3.265-2.606
			c0.906-1.026,1.635-2.145,2.125-3.299c0.474-1.154,0.722-2.337,0.679-3.427c-0.042-1.09-0.317-2.067-0.715-2.875
			c-0.41-0.8-0.892-1.437-1.353-1.898c-0.46-0.467-0.842-0.814-1.133-1.019c-0.283-0.22-0.432-0.333-0.432-0.333
			s0.162,0.099,0.461,0.29c0.304,0.184,0.735,0.481,1.238,0.921c0.51,0.432,1.062,1.055,1.551,1.855
			c0.489,0.808,0.878,1.848,0.963,3.031c0.1,1.175-0.106,2.471-0.56,3.731c-0.468,1.267-1.182,2.514-2.139,3.625
			c-0.949,1.112-2.109,2.138-3.477,2.889c-0.693,0.375-1.409,0.673-2.216,0.878c-0.779,0.191-1.579,0.255-2.364,0.241
			c-1.586-0.007-3.159-0.375-4.582-1.02c-1.416-0.651-2.662-1.601-3.633-2.719c-0.99-1.104-1.671-2.4-2.075-3.689
			c-0.402-1.295-0.487-2.591-0.346-3.76c0.128-1.168,0.523-2.195,0.99-3.009c0.475-0.814,0.984-1.458,1.452-1.933
			c0.468-0.481,0.878-0.814,1.161-1.02C150.629,23.597,150.777,23.484,150.777,23.484z"/>
	</g>
	<g>
		<path fill="#699DFF" d="M155.819,26.705c0.015,0.007,0.028-0.127,0.205-0.262c0.177-0.134,0.48-0.254,0.893-0.325
			c0.41-0.07,0.913-0.092,1.487-0.007c0.282,0.057,0.602,0.114,0.863,0.361c0.07,0.057,0.106,0.156,0.142,0.241l0.063,0.241
			c0.043,0.163,0.092,0.333,0.135,0.503c0.177,0.68,0.348,1.437,0.503,2.23c0.162,0.793,0.312,1.635,0.467,2.506
			c0.143,0.878,0.276,1.784,0.361,2.712c0.035,0.481,0.085,0.928,0.063,1.458l-0.028,0.411l-0.007,0.099v0.014
			c0.007-0.021-0.07,0.212-0.036,0.121l-0.007,0.021l-0.021,0.042c-0.036,0.064-0.021,0.078-0.121,0.198
			c-0.078,0.1-0.169,0.191-0.269,0.276l-0.205,0.12c-0.143,0.092-0.27,0.12-0.404,0.177c-0.523,0.17-1.019,0.22-1.509,0.262
			c-0.494,0.035-0.976,0.028-1.465-0.021c-0.489-0.057-0.963-0.107-1.494-0.348c-0.057-0.021-0.147-0.092-0.22-0.142l-0.057-0.042
			l-0.028-0.021c-0.021-0.021,0.028,0.035-0.057-0.057l-0.006-0.006l-0.051-0.071c-0.042-0.071-0.106-0.206-0.12-0.276
			c-0.014-0.063-0.035-0.135-0.049-0.198c-0.05-0.255-0.064-0.481-0.078-0.715c-0.036-0.914,0.014-1.763,0.078-2.577
			c0.062-0.807,0.142-1.572,0.226-2.273c0.163-1.402,0.334-2.571,0.468-3.377C155.671,27.151,155.819,26.705,155.819,26.705z
			 M155.819,26.705c0,0-0.143,0.454-0.256,1.268c-0.127,0.814-0.226,1.982-0.261,3.392c-0.014,0.701-0.014,1.466,0.007,2.273
			c0.028,0.8,0.063,1.657,0.184,2.493c0.036,0.205,0.07,0.417,0.127,0.602l0.043,0.121c0.021,0.035,0.008,0.007,0.014,0.035
			l0.058,0.064l0.006,0.007c-0.077-0.092-0.021-0.021-0.034-0.043h0.007l0.015,0.007c0.021,0.007,0.021,0.021,0.069,0.028
			c0.306,0.106,0.765,0.163,1.19,0.177c0.863,0.021,1.812-0.021,2.577-0.27c0.085-0.035,0.191-0.057,0.248-0.099l0.1-0.05
			c-0.015,0-0.021,0.015-0.015,0.036c0.007,0.056,0.042-0.057,0.063-0.093l0.021-0.042l0.007-0.021
			c0.036-0.099-0.042,0.128-0.034,0.099v-0.007l0.006-0.07l0.021-0.291c0.029-0.177,0-0.439,0-0.651c0-0.227,0.007-0.446-0.007-0.68
			c-0.042-0.914-0.084-1.82-0.127-2.691c-0.064-0.878-0.121-1.72-0.206-2.521c-0.07-0.807-0.162-1.551-0.269-2.251
			c-0.028-0.177-0.058-0.347-0.085-0.51l-0.042-0.248c-0.03-0.064-0.036-0.135-0.093-0.184c-0.198-0.212-0.503-0.305-0.771-0.375
			c-0.553-0.127-1.062-0.106-1.466-0.049s-0.716,0.177-0.893,0.304C155.848,26.578,155.834,26.712,155.819,26.705z"/>
	</g>
	<g>
		<path fill="#699DFF" d="M126.979,62.852c0,0,0.475-0.375,1.303-0.701c0.205-0.092,0.432-0.169,0.672-0.24
			c0.241-0.071,0.496-0.163,0.765-0.22c0.545-0.099,1.119-0.248,1.714-0.255c0.297-0.007,0.595-0.021,0.885-0.028
			c0.291-0.021,0.581,0.036,0.857,0.057c0.276,0.028,0.545,0.071,0.793,0.106c0.127,0.021,0.248,0.035,0.361,0.057
			c0.113,0.035,0.226,0.07,0.333,0.106c0.857,0.269,1.38,0.531,1.38,0.531s-0.608,0.078-1.458,0.063
			c-0.212-0.007-0.439,0-0.687,0.021c-0.241,0.014-0.496,0.035-0.758,0.035c-0.524-0.007-1.083,0.071-1.635,0.092
			c-0.276,0-0.56,0.028-0.829,0.064c-0.276,0.028-0.545,0.035-0.807,0.056c-0.524,0.064-1.02,0.092-1.444,0.142
			c-0.425,0.049-0.786,0.071-1.042,0.092C127.128,62.838,126.979,62.852,126.979,62.852z"/>
	</g>
	<ellipse fill="#699DFF" cx="157.787" cy="35.301" rx="1.976" ry="1.154"/>
	<circle fill="#FFFFFF" cx="161.095" cy="27.392" r="0.127"/>
	<circle fill="#FFFFFF" cx="153.872" cy="27.392" r="0.127"/>
</g>
<g id="Layer_3">
</g>
</svg>
